inDegrees=yes
name=ik_S41_A02_T01
DataType=double
version=3
OpenSimVersion=4.3-2021-08-27-4bc7ad9
endheader
time	pelvis_tilt	pelvis_list	pelvis_rotation	pelvis_tx	pelvis_ty	pelvis_tz	hip_flexion_r	hip_adduction_r	hip_rotation_r	knee_angle_r	knee_angle_r_beta	ankle_angle_r	subtalar_angle_r	mtp_angle_r	hip_flexion_l	hip_adduction_l	hip_rotation_l	knee_angle_l	knee_angle_l_beta	ankle_angle_l	subtalar_angle_l	mtp_angle_l	lumbar_extension	lumbar_bending	lumbar_rotation	arm_flex_r	arm_add_r	arm_rot_r	elbow_flex_r	pro_sup_r	wrist_flex_r	wrist_dev_r	arm_flex_l	arm_add_l	arm_rot_l	elbow_flex_l	pro_sup_l	wrist_flex_l	wrist_dev_l
0	0	0	0	0	0.9399999999999999	0	0	0	0	0	0	0	0	0	0	0	0	0	0	0	0	0	0	0	0	0	0	0	0	89.99999999963507	0	0	0	0	0	0	89.99999999869995	0	0
0.02	2.448995450151565	0.1918272020656673	78.84523374450995	0	0.9399999999999999	0	8.656918500461373	-0.3729833069095645	-3.569204562482489	13.87512541937084	0.2421666226951801	0	0	0	3.749440224609642	-0.2765371759404638	-0.3386606209142912	5.409752114600225	0.09441798611649953	0	0	0	0	0	0	1.674857322556706	-1.674857322556706	0.2977474584395134	8.225356319522225	89.70225255868397	0	0	1.674857322556706	-1.674857322556706	0.2977474584395134	8.225356319522225	89.70225255780471	0	0
0.04	2.461961641335688	0.2085552805131657	78.85942879624386	0	0.9399999999999999	0	8.675735386539142	-0.3851246149844251	-3.542263800614874	13.93300989435892	0.2431768973695105	0	0	0	3.725564580775425	-0.2853097641497419	-0.3454248725499877	5.433490446699144	0.09483229817055754	0	0	0	0	0	0	2.251452025934916	-2.251452025934917	0.4069988133361204	11.35513311477114	89.59300121026271	0	0	2.251452025934916	-2.251452025934917	0.4069988133361204	11.35513311477114	89.59300120940395	0	0
0.06	2.457873452171828	0.2188384116839773	78.88161113944145	0	0.9399999999999999	0	8.694916752947178	-0.3909355460695123	-3.566063318553045	13.98704759079076	0.2441200330924392	0	0	0	3.687556155487253	-0.2784838515915128	-0.3680528101567279	5.476535320313642	0.09558357294123536	0	0	0	0	0	0	2.420662952011742	-2.420662952011742	0.4382735072774609	11.77553769683476	89.56172651816159	0	0	2.420662952011742	-2.420662952011742	0.4382735072774609	11.77553769683476	89.5617265173087	0	0
0.08	2.462038117941481	0.1877178412914891	78.92284322685506	0	0.9399999999999999	0	8.745429531656239	-0.4016230334144071	-3.599593122202465	14.04649902323769	0.2451576563336652	0	0	0	3.703146107656654	-0.2730189691461683	-0.3533608623650669	5.440859675340311	0.09496091547367816	0	0	0	0	0	0	2.572882363883216	-2.572882363883216	0.4661945921715668	12.06908456664226	89.53380543490682	0	0	2.572882363883216	-2.572882363883216	0.4661945921715668	12.06908456664226	89.53380543405919	0	0
0.1	2.460527408711898	0.1791203232795586	78.92321491130022	0	0.9399999999999999	0	8.751428044596503	-0.4015396413540498	-3.601498884535167	14.08205114776992	0.2457781579628316	0	0	0	3.718829015449228	-0.2739885782574034	-0.3749051406410034	5.487832546055484	0.09578074672677155	0	0	0	0	0	0	2.69911264140131	-2.69911264140131	0.489838191931069	12.5308591072348	89.51016183654427	0	0	2.69911264140131	-2.69911264140131	0.489838191931069	12.5308591072348	89.5101618357009	0	0
0.12	2.475866480007038	0.1935558099654718	78.97797376418249	0	0.9399999999999999	0	8.792678290907467	-0.4119004316838465	-3.618836788756582	14.23699771241119	0.248482485680476	0	0	0	3.679554078339808	-0.2859398894902512	-0.3529842889909577	5.524951989605291	0.09642860323322384	0	0	0	0	0	0	3.544103303218026	-3.544103303218026	0.6474718495560372	15.95430221762285	89.35252818822288	0	0	3.544103303218026	-3.544103303218026	0.6474718495560372	15.95430221762285	89.35252818740906	0	0
0.14	2.478617330524753	0.2159831410185609	78.99815365789331	0	0.9399999999999999	0	8.76219484505728	-0.4053349451843101	-3.634842877889042	14.2309671299871	0.2483772321613627	0	0	0	3.655730192792668	-0.2847865245010782	-0.3340117317910847	5.551951114689023	0.09689982686109277	0	0	0	0	0	0	3.710433457301086	-3.710433457301084	0.6777019882707574	16.41407664385211	89.32229805128006	0	0	3.710433457301086	-3.710433457301084	0.6777019882707574	16.41407664385211	89.3222980504718	0	0
0.16	2.487539427971183	0.2028995510721932	79.00536644587417	0	0.9399999999999999	0	8.804354822540246	-0.4110205026470517	-3.608124241956578	14.30039710891434	0.2495890138932333	0	0	0	3.659079917778369	-0.2788052683333612	-0.3681483872543677	5.515316309320693	0.09626042888658812	0	0	0	0	0	0	4.204729310067604	-4.204729310067602	0.7685982695160365	18.2518245566563	89.23140177538042	0	0	4.204729310067604	-4.204729310067602	0.7685982695160365	18.2518245566563	89.23140177458923	0	0
0.18	2.500033966086337	0.2111827774573437	79.02452109508341	0	0.9399999999999999	0	8.78385833568553	-0.4114917345705358	-3.604241792209399	14.24432275940609	0.2486103318684003	0	0	0	3.641208895667761	-0.2782671812057954	-0.3571518617938682	5.582817308011921	0.09743854356213442	0	0	0	0	0	0	4.3453657936999	-4.345365793699898	0.7939466336862692	18.64680414341129	89.206053412693	0	0	4.3453657936999	-4.345365793699898	0.7939466336862692	18.64680414341129	89.20605341190657	0	0
0.2	2.504204976919648	0.1875178468278448	79.03708268629116	0	0.9399999999999999	0	8.833930957511569	-0.4313355550652339	-3.606577378636077	14.38541054641874	0.2510727782861236	0	0	0	3.656207869971959	-0.2835031348260661	-0.3681520546463329	5.658356009048566	0.09875694260790353	0	0	0	0	0	0	4.472469473466529	-4.472469473466528	0.8168879545561717	19.02366952383607	89.18311209316576	0	0	4.472469473466529	-4.472469473466528	0.8168879545561717	19.02366952383607	89.1831120923836	0	0
0.22	2.527384408648337	0.2293609881222514	79.0562586738946	0	0.9399999999999999	0	8.779906602372042	-0.4319970744055565	-3.6703598990151	14.34594663750499	0.2503840031398715	0	0	0	3.596328034725587	-0.2868105181473602	-0.3900185677994358	5.732378176180616	0.1000488731438193	0	0	0	0	0	0	4.690250461872986	-4.690250461872984	0.857176143713722	19.9921841457946	89.14282390638253	0	0	4.690250461872986	-4.690250461872984	0.857176143713722	19.9921841457946	89.14282390560757	0	0
0.24	2.545812851292886	0.2555465979244371	79.04106535156328	0	0.9399999999999999	0	8.705006327263623	-0.4208063269997482	-3.642192890299347	14.2274148699566	0.2483152335279436	0	0	0	3.518343298020237	-0.2885372572762144	-0.3930294034470782	5.56478301484646	0.09712378576812722	0	0	0	0	0	0	4.808077551083764	-4.808077551083763	0.8791115395434231	20.55434182447171	89.12088851184789	0	0	4.808077551083764	-4.808077551083763	0.8791115395434231	20.55434182447171	89.12088851107696	0	0
0.26	2.539913139650054	0.2224883515530608	79.06011228662712	0	0.9399999999999999	0	8.762392455235684	-0.436725393381195	-3.647352565750466	14.22652720936013	0.248299740927895	0	0	0	3.530179586580159	-0.2684624824796359	-0.3542851749690401	5.514017119243719	0.09623775374213567	0	0	0	0	0	0	4.941635339313101	-4.941635339313099	0.9030375865040817	20.95755628688766	89.09696246628504	0	0	4.941635339313101	-4.941635339313099	0.9030375865040817	20.95755628688766	89.09696246551871	0	0
0.28	2.554096507386349	0.2212357196259906	79.07152700670449	0	0.9399999999999999	0	8.753157331612046	-0.4331155792484697	-3.638591477192971	14.16653204342717	0.2472526277470844	0	0	0	3.50847585381316	-0.2854197986653131	-0.3450124545257337	5.46296609571832	0.09534674529510438	0	0	0	0	0	0	5.057486971226074	-5.057486971226071	0.9236447425314789	21.27799107354836	89.0763553114593	0	0	5.057486971226074	-5.057486971226071	0.9236447425314789	21.27799107354836	89.07635531069683	0	0
0.3	2.549664372040798	0.1842950948238346	79.06762769490446	0	0.9399999999999999	0	8.830593761399047	-0.4592073429244706	-3.652542852795557	14.3438618163433	0.2503476161462848	0	0	0	3.568789794862637	-0.2820697969132001	-0.3532724800157895	5.583020022844829	0.09744208160341129	0	0	0	0	0	0	5.186371061901135	-5.186371061901133	0.9467387977837036	21.68754579516991	89.05326125755661	0	0	5.186371061901135	-5.186371061901133	0.9467387977837036	21.68754579516991	89.05326125679848	0	0
0.32	2.572616762165724	0.1918189682526027	79.07804999143058	0	0.9399999999999999	0	8.830049081508957	-0.4426713432577335	-3.654536401370283	14.37876103279821	0.2509567223797892	0	0	0	3.561317076003046	-0.293160630769737	-0.3478241285246959	5.640669412615317	0.09844825326667185	0	0	0	0	0	0	5.274191239903607	-5.274191239903605	0.9627901451765741	22.03893110789517	89.03720991110667	0	0	5.274191239903607	-5.274191239903605	0.9627901451765741	22.03893110789517	89.03720991035158	0	0
0.34	2.595735731123042	0.1476339366619865	79.09216355455662	0	0.9399999999999999	0	8.881814764533326	-0.4249320848513425	-3.662131440674153	14.39915613950594	0.2513126841431347	0	0	0	3.613770435496885	-0.2988010801083832	-0.3266979723424416	5.665263131216203	0.09887749463156628	0	0	0	0	0	0	5.364187031210149	-5.364187031210147	0.9791829787190437	22.39169873617816	89.02081707852643	0	0	5.364187031210149	-5.364187031210147	0.9791829787190437	22.39169873617816	89.0208170777744	0	0
0.36	2.563069580375428	0.1352595199983155	79.13896500304894	0	0.9399999999999999	0	8.858442416063005	-0.4629817187089548	-3.709484960409079	14.11434617075975	0.2463418124460115	0	0	0	3.617748581725381	-0.2570574144040849	-0.2593589379483127	5.543154991123786	0.09674630554346712	0	0	0	0	0	0	5.64689744213488	-5.646897442134877	1.030649085324216	23.59436664712313	88.96935097494413	0	0	5.64689744213488	-5.646897442134877	1.030649085324216	23.59436664712313	88.96935097420157	0	0
0.3800000000000001	2.584311909655868	0.05424564844359345	79.1111311169892	0	0.9399999999999999	0	8.976778816312624	-0.440537145675841	-3.673490589641634	14.21829600469865	0.2481560793051467	0	0	0	3.686349827862341	-0.2787381936347604	-0.2627680677218883	5.426912616524478	0.09471749337637257	0	0	0	0	0	0	5.77323241979128	-5.773232419791278	1.052855623195997	23.95327939305801	88.94714443836381	0	0	5.77323241979128	-5.773232419791278	1.052855623195997	23.95327939305801	88.94714443762538	0	0
0.4000000000000001	2.578648210194238	0.02031378971535735	79.13913997581564	0	0.9399999999999999	0	9.014021984067117	-0.4548551201945208	-3.724653055091997	14.20188774572788	0.2478697011615867	0	0	0	3.748105275226446	-0.2398722927751396	-0.2013747053204068	5.416824890201057	0.09454142933798877	0	0	0	0	0	0	5.884115357265462	-5.884115357265459	1.072423887076727	24.28486801006526	88.92757617562236	0	0	5.884115357265462	-5.884115357265459	1.072423887076727	24.28486801006526	88.92757617488759	0	0
0.4200000000000001	2.578328135617176	0.02070203223038055	79.14361600616708	0	0.9399999999999999	0	9.016343875169438	-0.4793887769095346	-3.775020138262123	14.17506809720399	0.2474016099906172	0	0	0	3.770396551614197	-0.1953288612302033	-0.1598285706451731	5.376578755945904	0.09383900178403669	0	0	0	0	0	0	5.986854363299789	-5.986854363299788	1.090516263837639	24.58968882670842	88.90948379991426	0	0	5.986854363299789	-5.986854363299788	1.090516263837639	24.58968882670842	88.90948379918289	0	0
0.4400000000000001	2.573728543319691	-0.05846017821073948	79.14214450650979	0	0.9399999999999999	0	9.14783817286601	-0.5041159528450058	-3.798452963058748	14.32716692147816	0.2500562352626138	0	0	0	3.976091556006397	-0.1639523899980576	-0.1762174581204666	5.599141320740681	0.09772345133138875	0	0	0	0	0	0	6.096854639874681	-6.096854639874679	1.110225334303811	24.98461408111498	88.88977473060035	0	0	6.096854639874681	-6.096854639874679	1.110225334303811	24.98461408111498	88.88977472987263	0	0
0.4600000000000001	2.566768639785654	-0.08254074097997323	79.1549412980862	0	0.9399999999999999	0	9.222005906744418	-0.5357157500244569	-3.889766535520526	14.22670083960171	0.2483027713472915	0	0	0	4.040275282822895	-0.08836810521185705	-0.1741150187807215	5.527522222712332	0.09647346226348548	0	0	0	0	0	0	6.101001555379385	-6.101001555379383	1.110991388499907	25.0041016901971	88.88900867644936	0	0	6.101001555379385	-6.101001555379383	1.110991388499907	25.0041016901971	88.88900867572181	0	0
0.4800000000000001	2.553224001712307	-0.1585584697318953	79.18080603775255	0	0.9399999999999999	0	9.361361523306842	-0.5511393769224301	-4.008260336002173	14.2131235722383	0.2480658033283765	0	0	0	4.290664384283588	-0.01019628809681985	-0.2081457802487346	5.574381526022377	0.09729131139143643	0	0	0	0	0	0	6.104247244118294	-6.104247244118292	1.111586618366144	25.01903616080716	88.88841344661813	0	0	6.104247244118294	-6.104247244118292	1.111586618366144	25.01903616080716	88.88841344589075	0	0
